<svg width="101" height="30" fill="none" xmlns="http://www.w3.org/2000/svg"><path d="M85.098 30L74.722 16.965l9.736-12.777h-5.13l-8.27 11.062H63.69V4.187h-4.094V30h4.094V18.937h7.582L79.879 30h5.22zm-55.3-22.125h10.988V30h4.097V7.875h10.988V4.187H29.798v3.688zm-9.682-3.678v-.01h-8.768v.01h-.366L0 30h4.462l3.071-7.375h16.403L27.007 30h4.462L20.489 4.197h-.372zM9.07 18.937l4.608-11.064h4.115l4.609 11.064H9.07z" fill="#fff"/><path d="M89.394 7.875c4.114 0 7.45-3.302 7.45-7.375h-3.725c0 2.036-1.668 3.688-3.725 3.688v3.687z" fill="#FF5A00"/><path d="M96.843 4.188V6.4c0 .815-.666 1.475-1.49 1.475H93.12v3.688h3.724V9.35c0-.815.667-1.475 1.49-1.475h2.235V4.187h-3.725z" fill="#CA0043"/></svg>